<svg width="46" height="46" viewBox="0 0 46 46" fill="none" xmlns="http://www.w3.org/2000/svg">
<path d="M38.3728 28.2677C38.2849 27.9513 38.4783 27.5118 38.6629 27.1954C38.7193 27.1013 38.7809 27.0103 38.8474 26.923C40.4262 24.577 41.2707 21.8141 41.2732 18.9865C41.2996 10.8829 34.4617 4.30872 26.0066 4.30872C18.6326 4.30872 12.4802 9.32727 11.0388 15.9894C10.8232 16.9768 10.7142 17.9845 10.7136 18.9952C10.7136 27.1075 17.2879 33.8575 25.7429 33.8575C27.0877 33.8575 28.8982 33.4532 29.8914 33.1808C30.8845 32.9083 31.8689 32.548 32.1238 32.4513C32.3851 32.3528 32.662 32.3022 32.9412 32.3019C33.2458 32.3007 33.5477 32.3605 33.8289 32.4777L38.8123 34.2443C38.9215 34.2905 39.037 34.3201 39.1551 34.3322C39.3415 34.3322 39.5204 34.2581 39.6522 34.1262C39.7841 33.9944 39.8582 33.8155 39.8582 33.629C39.852 33.5486 39.8373 33.469 39.8142 33.3917L38.3728 28.2677Z" stroke="#FF6661" stroke-width="2.8125" stroke-miterlimit="10" stroke-linecap="round"/>
<path d="M6.33318 20.4806C5.18043 22.5515 4.62279 24.9009 4.72191 27.2689C4.82102 29.637 5.57303 31.9315 6.8948 33.8989C7.09783 34.2056 7.21208 34.4429 7.17693 34.602C7.14177 34.7611 6.12839 40.0398 6.12839 40.0398C6.10402 40.1633 6.11326 40.2911 6.15516 40.4098C6.19706 40.5286 6.27007 40.6339 6.36658 40.7148C6.49534 40.8174 6.65545 40.8726 6.82009 40.8712C6.90807 40.8715 6.99515 40.8535 7.07585 40.8185L12.0162 38.8849C12.3562 38.7508 12.7355 38.7572 13.0709 38.9025C14.7355 39.5511 16.576 39.9572 18.4173 39.9572C20.8881 39.9598 23.3156 39.3081 25.4529 38.0684" stroke="#FF6661" stroke-width="2.8125" stroke-miterlimit="10" stroke-linecap="round"/>
</svg>
