<svg width="20" height="21" viewBox="0 0 20 21" fill="none" xmlns="http://www.w3.org/2000/svg">
<path d="M10 2.06006C5.16797 2.06006 1.25 6.07959 1.25 11.0327C1.25 14.9976 3.75781 18.3569 7.23438 19.5444C7.28314 19.555 7.33291 19.5603 7.38281 19.5601C7.70703 19.5601 7.83203 19.3218 7.83203 19.1147C7.83203 18.8999 7.82422 18.3374 7.82031 17.5874C7.53088 17.6553 7.23478 17.6906 6.9375 17.6929C5.25391 17.6929 4.87109 16.3843 4.87109 16.3843C4.47266 15.3491 3.89844 15.0718 3.89844 15.0718C3.13672 14.5366 3.89453 14.521 3.95312 14.521H3.95703C4.83594 14.5991 5.29688 15.4507 5.29688 15.4507C5.73438 16.2163 6.32031 16.4312 6.84375 16.4312C7.18986 16.4242 7.53061 16.3444 7.84375 16.1968C7.92188 15.6187 8.14844 15.2241 8.39844 14.9976C6.45703 14.771 4.41406 14.0015 4.41406 10.564C4.41406 9.5835 4.75391 8.78271 5.3125 8.15771C5.22266 7.93115 4.92188 7.01709 5.39844 5.78271C5.46236 5.76742 5.52806 5.76085 5.59375 5.76318C5.91016 5.76318 6.625 5.88428 7.80469 6.70459C9.2381 6.30354 10.7541 6.30354 12.1875 6.70459C13.3672 5.88428 14.082 5.76318 14.3984 5.76318C14.4641 5.76085 14.5298 5.76742 14.5938 5.78271C15.0703 7.01709 14.7695 7.93115 14.6797 8.15771C15.2383 8.78662 15.5781 9.5874 15.5781 10.564C15.5781 14.0093 13.5312 14.7671 11.582 14.9897C11.8945 15.2671 12.1758 15.814 12.1758 16.6499C12.1758 17.8491 12.1641 18.8179 12.1641 19.1108C12.1641 19.3218 12.2852 19.5601 12.6094 19.5601C12.6619 19.5603 12.7142 19.5551 12.7656 19.5444C16.2461 18.3569 18.75 14.9937 18.75 11.0327C18.75 6.07959 14.832 2.06006 10 2.06006Z" fill="#7C7C92" stroke="#7C7C92" stroke-width="0.0390625"/>
</svg>
