<svg width="20" height="21" viewBox="0 0 20 21" fill="none" xmlns="http://www.w3.org/2000/svg">
<path d="M13.6457 3.51826C14.6118 3.52115 15.5375 3.90621 16.2207 4.58937C16.9038 5.27252 17.2889 6.19824 17.2918 7.16436V14.4558C17.2889 15.4219 16.9038 16.3476 16.2207 17.0308C15.5375 17.7139 14.6118 18.099 13.6457 18.1019H6.3543C5.38818 18.099 4.46246 17.7139 3.77931 17.0308C3.09616 16.3476 2.71109 15.4219 2.7082 14.4558V7.16436C2.71109 6.19824 3.09616 5.27252 3.77931 4.58937C4.46246 3.90621 5.38818 3.52115 6.3543 3.51826H13.6457ZM13.6457 2.06006H6.3543C3.54687 2.06006 1.25 4.35693 1.25 7.16436V14.4558C1.25 17.2632 3.54687 19.5601 6.3543 19.5601H13.6457C16.4531 19.5601 18.75 17.2632 18.75 14.4558V7.16436C18.75 4.35693 16.4531 2.06006 13.6457 2.06006Z" fill="#7C7C92" stroke="#7C7C92" stroke-width="0.0390625"/>
<path d="M14.7395 7.16455C14.5231 7.16455 14.3117 7.1004 14.1318 6.98022C13.9519 6.86004 13.8117 6.68922 13.729 6.48936C13.6462 6.2895 13.6245 6.06959 13.6667 5.85742C13.7089 5.64525 13.8131 5.45037 13.9661 5.2974C14.119 5.14444 14.3139 5.04027 14.5261 4.99807C14.7382 4.95586 14.9582 4.97752 15.158 5.06031C15.3579 5.14309 15.5287 5.28328 15.6489 5.46315C15.7691 5.64301 15.8332 5.85448 15.8332 6.0708C15.8335 6.21452 15.8054 6.35689 15.7506 6.48973C15.6957 6.62257 15.6152 6.74326 15.5135 6.84489C15.4119 6.94651 15.2912 7.02707 15.1584 7.08192C15.0255 7.13678 14.8832 7.16486 14.7395 7.16455ZM10 7.89346C10.5769 7.89346 11.1408 8.06452 11.6205 8.38503C12.1002 8.70553 12.474 9.16107 12.6948 9.69404C12.9155 10.227 12.9733 10.8135 12.8608 11.3793C12.7482 11.9451 12.4704 12.4648 12.0625 12.8727C11.6546 13.2807 11.1348 13.5585 10.569 13.671C10.0032 13.7836 9.41677 13.7258 8.88379 13.505C8.35082 13.2843 7.89528 12.9104 7.57477 12.4307C7.25427 11.9511 7.0832 11.3871 7.0832 10.8103C7.08403 10.0369 7.3916 9.29551 7.93843 8.74868C8.48525 8.20185 9.22667 7.89428 10 7.89346ZM10 6.43525C9.13471 6.43525 8.28885 6.69184 7.56938 7.17257C6.84992 7.65331 6.28916 8.33659 5.95803 9.13601C5.6269 9.93544 5.54026 10.8151 5.70907 11.6638C5.87788 12.5124 6.29456 13.292 6.90641 13.9038C7.51826 14.5157 8.29781 14.9324 9.14648 15.1012C9.99515 15.27 10.8748 15.1834 11.6742 14.8522C12.4737 14.5211 13.157 13.9603 13.6377 13.2409C14.1184 12.5214 14.375 11.6755 14.375 10.8103C14.375 9.64993 13.9141 8.53713 13.0936 7.71666C12.2731 6.89619 11.1603 6.43525 10 6.43525Z" fill="#7C7C92" stroke="#7C7C92" stroke-width="0.0390625"/>
</svg>
