<svg width="46" height="46" viewBox="0 0 46 46" fill="none" xmlns="http://www.w3.org/2000/svg">
<path d="M38.1337 11.34H7.19623C4.86628 11.34 2.97748 13.2288 2.97748 15.5587V35.2462C2.97748 37.5762 4.86628 39.465 7.19623 39.465H38.1337C40.4637 39.465 42.3525 37.5762 42.3525 35.2462V15.5587C42.3525 13.2288 40.4637 11.34 38.1337 11.34Z" stroke="#FF6661" stroke-width="2.8125" stroke-linejoin="round"/>
<path d="M12.8212 11.34V8.52747C12.8212 7.78154 13.1175 7.06617 13.645 6.53873C14.1724 6.01128 14.8878 5.71497 15.6337 5.71497H29.6962C30.4421 5.71497 31.1575 6.01128 31.685 6.53873C32.2124 7.06617 32.5087 7.78154 32.5087 8.52747V11.34M42.3525 21.1837H2.97748M28.29 21.1837V23.2931C28.29 23.4796 28.2159 23.6584 28.084 23.7903C27.9522 23.9221 27.7733 23.9962 27.5869 23.9962H17.7431C17.5566 23.9962 17.3778 23.9221 17.2459 23.7903C17.1141 23.6584 17.04 23.4796 17.04 23.2931V21.1837" stroke="#FF6661" stroke-width="2.8125" stroke-linecap="round" stroke-linejoin="round"/>
</svg>
