<svg width="46" height="46" viewBox="0 0 46 46" fill="none" xmlns="http://www.w3.org/2000/svg">
<path d="M41.4187 4.81931C41.4038 4.74718 41.3685 4.68082 41.3172 4.62804C41.2658 4.57526 41.2004 4.53825 41.1287 4.52136C36.3492 3.35242 25.3084 7.51755 19.3204 13.5011C18.2532 14.5596 17.2801 15.7088 16.4121 16.9359C14.5664 16.7689 12.7207 16.9095 11.1492 17.5951C6.71159 19.5463 5.42048 24.6422 5.06012 26.8298C5.0406 26.9496 5.04894 27.0724 5.08449 27.1885C5.12005 27.3046 5.18187 27.411 5.26516 27.4994C5.34845 27.5878 5.45097 27.6558 5.56478 27.6982C5.67859 27.7406 5.80064 27.7562 5.92145 27.7438L13.0467 26.9616C13.0517 27.499 13.0839 28.0359 13.1434 28.57C13.1806 28.9392 13.3453 29.2839 13.6092 29.5447L16.3681 32.3036C16.6292 32.5677 16.9742 32.7324 17.3437 32.7694C17.8747 32.8286 18.4082 32.8609 18.9424 32.8661L18.1611 39.9852C18.1489 40.1059 18.1646 40.2277 18.207 40.3414C18.2494 40.455 18.3174 40.5573 18.4056 40.6405C18.4939 40.7237 18.6001 40.7854 18.7161 40.821C18.832 40.8566 18.9546 40.865 19.0743 40.8457C21.2628 40.4941 26.3692 39.203 28.309 34.7663C28.9945 33.193 29.1351 31.357 28.9769 29.5201C30.2076 28.6529 31.3602 27.6798 32.4214 26.6118C38.4313 20.6352 42.5701 9.83699 41.4187 4.81931ZM27.0794 18.8695C26.5544 18.3447 26.1969 17.676 26.052 16.948C25.9071 16.2199 25.9814 15.4653 26.2654 14.7795C26.5495 14.0937 27.0305 13.5075 27.6477 13.0951C28.2649 12.6827 28.9905 12.4626 29.7328 12.4626C30.4751 12.4626 31.2007 12.6827 31.8179 13.0951C32.4351 13.5075 32.9161 14.0937 33.2001 14.7795C33.4841 15.4653 33.5584 16.2199 33.4135 16.948C33.2687 17.676 32.9111 18.3447 32.3862 18.8695C32.038 19.2184 31.6244 19.4953 31.1691 19.6841C30.7138 19.873 30.2257 19.9702 29.7328 19.9702C29.2398 19.9702 28.7518 19.873 28.2964 19.6841C27.8411 19.4953 27.4275 19.2184 27.0794 18.8695Z" stroke="#FF6661" stroke-width="2.8125" stroke-linecap="round" stroke-linejoin="round"/>
<path d="M10.4663 31.0275C9.59011 31.135 8.77499 31.5322 8.15037 32.156C6.60173 33.7099 6.45496 39.465 6.45496 39.465C6.45496 39.465 12.2135 39.3182 13.7631 37.7678C14.3893 37.1442 14.7872 36.3277 14.8925 35.4501" stroke="#FF6661" stroke-width="2.8125" stroke-linecap="round" stroke-linejoin="round"/>
</svg>
