<svg width="20" height="21" viewBox="0 0 20 21" fill="none" xmlns="http://www.w3.org/2000/svg">
<g clip-path="url(#clip0_1_206)">
<path d="M19.8687 6.62217C19.8687 4.86436 18.5758 3.45029 16.9781 3.45029C14.8141 3.34912 12.607 3.31006 10.3516 3.31006H9.64843C7.39843 3.31006 5.18749 3.34912 3.02343 3.45068C1.42968 3.45068 0.136712 4.87256 0.136712 6.63037C0.0390559 8.02061 -0.00235035 9.41123 -6.59841e-06 10.8019C-0.00391285 12.1925 0.040358 13.5844 0.132806 14.9776C0.132806 16.7354 1.42577 18.1612 3.01953 18.1612C5.29296 18.2667 7.62499 18.3136 9.99609 18.3097C12.3711 18.3175 14.6966 18.268 16.9727 18.1612C18.5703 18.1612 19.8633 16.7354 19.8633 14.9776C19.957 13.5831 20 12.1925 19.9961 10.7979C20.0049 9.40732 19.9625 8.0154 19.8687 6.62217ZM8.08593 14.6339V6.95811L13.75 10.794L8.08593 14.6339Z" fill="#7C7C92" stroke="#7C7C92" stroke-width="0.0390625"/>
</g>
<defs>
<clipPath id="clip0_1_206">
<rect width="20" height="20" fill="white" transform="translate(0 0.810059)"/>
</clipPath>
</defs>
</svg>
